<svg width="198" height="121" viewBox="0 0 198 121" fill="none" xmlns="http://www.w3.org/2000/svg">
<g filter="url(#filter0_d_2_431)">
<rect x="39.0002" y="38.1451" width="137" height="56" rx="5" fill="url(#paint0_linear_2_431)" shape-rendering="crispEdges"/>
</g>
<path opacity="0.6" d="M78.0892 78.8191H73.0492L71.9852 81.2831H70.5152L74.9532 71.3151H76.1712L80.6232 81.2831H79.1532L78.0892 78.8191ZM77.5992 77.6711L75.5692 72.9251L73.5392 77.6711H77.5992ZM84.8541 81.3811C84.1448 81.3811 83.5241 81.2317 82.9921 80.9331C82.4695 80.6344 82.0681 80.2144 81.7881 79.6731C81.5081 79.1224 81.3681 78.4831 81.3681 77.7551C81.3681 77.0271 81.5128 76.3831 81.8021 75.8231C82.1008 75.2631 82.5161 74.8291 83.0481 74.5211C83.5801 74.2131 84.2008 74.0591 84.9101 74.0591C85.4048 74.0591 85.8808 74.1431 86.3381 74.3111C86.7955 74.4697 87.1641 74.6891 87.4441 74.9691L87.0101 75.9911C86.3475 75.4684 85.6801 75.2071 85.0081 75.2071C84.3268 75.2071 83.7948 75.4311 83.4121 75.8791C83.0295 76.3177 82.8381 76.9384 82.8381 77.7411C82.8381 78.5437 83.0295 79.1644 83.4121 79.6031C83.7948 80.0324 84.3268 80.2471 85.0081 80.2471C85.6988 80.2471 86.3661 79.9857 87.0101 79.4631L87.4441 80.4851C87.1455 80.7651 86.7628 80.9844 86.2961 81.1431C85.8388 81.3017 85.3581 81.3811 84.8541 81.3811ZM90.6358 75.3191V78.8611C90.6358 79.3464 90.7385 79.6917 90.9438 79.8971C91.1585 80.0931 91.4525 80.1911 91.8258 80.1911C92.0685 80.1911 92.3158 80.1537 92.5678 80.0791V81.2271C92.2598 81.3297 91.9098 81.3811 91.5178 81.3811C90.7898 81.3811 90.2251 81.1757 89.8238 80.7651C89.4225 80.3544 89.2218 79.7571 89.2218 78.9731V75.3191H87.8498V74.2271H89.2218V72.4631L90.6358 71.9731V74.2271H92.5818V75.3191H90.6358ZM93.8877 74.2271H95.2877V81.2831H93.8877V74.2271ZM95.3997 71.1471V72.6311H93.7617V71.1471H95.3997ZM103.772 74.2411L100.706 81.2831H99.4324L96.3944 74.2411H97.8924L100.104 79.6871L102.358 74.2411H103.772ZM110.791 77.7831H105.751C105.797 79.4351 106.549 80.2611 108.005 80.2611C108.817 80.2611 109.559 79.9951 110.231 79.4631L110.665 80.4711C110.347 80.7511 109.941 80.9751 109.447 81.1431C108.961 81.3017 108.471 81.3811 107.977 81.3811C106.847 81.3811 105.961 81.0591 105.317 80.4151C104.673 79.7617 104.351 78.8704 104.351 77.7411C104.351 77.0224 104.491 76.3831 104.771 75.8231C105.06 75.2631 105.461 74.8291 105.975 74.5211C106.488 74.2131 107.071 74.0591 107.725 74.0591C108.677 74.0591 109.423 74.3671 109.965 74.9831C110.515 75.5991 110.791 76.4531 110.791 77.5451V77.7831ZM107.753 75.1091C107.221 75.1091 106.787 75.2677 106.451 75.5851C106.115 75.9024 105.9 76.3551 105.807 76.9431H109.545C109.489 76.3457 109.307 75.8931 108.999 75.5851C108.691 75.2677 108.275 75.1091 107.753 75.1091ZM120.654 81.3951C119.692 81.3951 118.852 81.1897 118.134 80.7791C117.424 80.3591 116.878 79.7664 116.496 79.0011C116.113 78.2357 115.922 77.3304 115.922 76.2851C115.922 75.2491 116.113 74.3484 116.496 73.5831C116.878 72.8177 117.424 72.2297 118.134 71.8191C118.852 71.4084 119.692 71.2031 120.654 71.2031C121.335 71.2031 121.965 71.3104 122.544 71.5251C123.132 71.7304 123.626 72.0337 124.028 72.4351L123.524 73.4991C123.057 73.1164 122.595 72.8411 122.138 72.6731C121.69 72.4957 121.2 72.4071 120.668 72.4071C119.632 72.4071 118.829 72.7431 118.26 73.4151C117.7 74.0871 117.42 75.0437 117.42 76.2851C117.42 77.5357 117.7 78.5017 118.26 79.1831C118.829 79.8551 119.632 80.1911 120.668 80.1911C121.2 80.1911 121.69 80.1071 122.138 79.9391C122.595 79.7617 123.057 79.4817 123.524 79.0991L124.028 80.1631C123.626 80.5644 123.132 80.8724 122.544 81.0871C121.965 81.2924 121.335 81.3951 120.654 81.3951ZM125.716 70.9791H127.116V81.2831H125.716V70.9791ZM129.189 74.2271H130.589V81.2831H129.189V74.2271ZM130.701 71.1471V72.6311H129.063V71.1471H130.701ZM138.681 77.7831H133.641C133.688 79.4351 134.439 80.2611 135.895 80.2611C136.707 80.2611 137.449 79.9951 138.121 79.4631L138.555 80.4711C138.238 80.7511 137.832 80.9751 137.337 81.1431C136.852 81.3017 136.362 81.3811 135.867 81.3811C134.738 81.3811 133.851 81.0591 133.207 80.4151C132.563 79.7617 132.241 78.8704 132.241 77.7411C132.241 77.0224 132.381 76.3831 132.661 75.8231C132.951 75.2631 133.352 74.8291 133.865 74.5211C134.379 74.2131 134.962 74.0591 135.615 74.0591C136.567 74.0591 137.314 74.3671 137.855 74.9831C138.406 75.5991 138.681 76.4531 138.681 77.5451V77.7831ZM135.643 75.1091C135.111 75.1091 134.677 75.2677 134.341 75.5851C134.005 75.9024 133.791 76.3551 133.697 76.9431H137.435C137.379 76.3457 137.197 75.8931 136.889 75.5851C136.581 75.2677 136.166 75.1091 135.643 75.1091ZM144.056 74.0591C145.745 74.0591 146.59 75.0017 146.59 76.8871V81.2831H145.176V76.9711C145.176 76.3551 145.054 75.9071 144.812 75.6271C144.578 75.3471 144.2 75.2071 143.678 75.2071C143.08 75.2071 142.6 75.3937 142.236 75.7671C141.881 76.1404 141.704 76.6397 141.704 77.2651V81.2831H140.304V76.2151C140.304 75.4777 140.266 74.8151 140.192 74.2271H141.508L141.634 75.4451C141.858 74.9971 142.18 74.6564 142.6 74.4231C143.029 74.1804 143.514 74.0591 144.056 74.0591ZM150.437 75.3191V78.8611C150.437 79.3464 150.539 79.6917 150.745 79.8971C150.959 80.0931 151.253 80.1911 151.627 80.1911C151.869 80.1911 152.117 80.1537 152.369 80.0791V81.2271C152.061 81.3297 151.711 81.3811 151.319 81.3811C150.591 81.3811 150.026 81.1757 149.625 80.7651C149.223 80.3544 149.023 79.7571 149.023 78.9731V75.3191H147.651V74.2271H149.023V72.4631L150.437 71.9731V74.2271H152.383V75.3191H150.437ZM156.153 81.3811C154.921 81.3811 153.95 81.0824 153.241 80.4851L153.661 79.4631C154.398 80.0231 155.243 80.3031 156.195 80.3031C156.68 80.3031 157.049 80.2237 157.301 80.0651C157.553 79.8971 157.679 79.6637 157.679 79.3651C157.679 79.1131 157.59 78.9171 157.413 78.7771C157.245 78.6277 156.955 78.5017 156.545 78.3991L155.369 78.1191C154.753 77.9884 154.281 77.7597 153.955 77.4331C153.637 77.0971 153.479 76.6817 153.479 76.1871C153.479 75.5524 153.731 75.0391 154.235 74.6471C154.748 74.2551 155.425 74.0591 156.265 74.0591C156.769 74.0591 157.245 74.1384 157.693 74.2971C158.15 74.4557 158.537 74.6797 158.855 74.9691L158.421 75.9631C157.739 75.4217 157.021 75.1511 156.265 75.1511C155.807 75.1511 155.453 75.2397 155.201 75.4171C154.949 75.5851 154.823 75.8231 154.823 76.1311C154.823 76.3737 154.902 76.5697 155.061 76.7191C155.219 76.8684 155.471 76.9851 155.817 77.0691L157.021 77.3631C157.693 77.5124 158.187 77.7504 158.505 78.0771C158.831 78.3944 158.995 78.8097 158.995 79.3231C158.995 79.9577 158.738 80.4617 158.225 80.8351C157.721 81.1991 157.03 81.3811 156.153 81.3811Z" fill="#3D3D3F"/>
<path d="M96.3382 53.7092C97.1302 53.7092 97.8322 53.8832 98.4442 54.2312C99.0682 54.5672 99.5482 55.0472 99.8842 55.6712C100.232 56.2952 100.406 57.0152 100.406 57.8312C100.406 58.6952 100.202 59.4572 99.7942 60.1172C99.3982 60.7652 98.8222 61.2692 98.0662 61.6292C97.3222 61.9772 96.4522 62.1512 95.4562 62.1512C94.6402 62.1512 93.8302 62.0192 93.0262 61.7552C92.2342 61.4912 91.5922 61.1432 91.1002 60.7112L92.0002 58.6952C93.1402 59.5232 94.3042 59.9372 95.4922 59.9372C96.9922 59.9372 97.7422 59.2712 97.7422 57.9392C97.7422 57.3032 97.5442 56.8052 97.1482 56.4452C96.7642 56.0732 96.2362 55.8872 95.5642 55.8872C95.1442 55.8872 94.7182 55.9652 94.2862 56.1212C93.8662 56.2772 93.4882 56.4932 93.1522 56.7692H91.5502V49.1912H99.7762V51.3512H94.2862V54.2132C94.8502 53.8772 95.5342 53.7092 96.3382 53.7092ZM106.857 62.1692C105.309 62.1692 104.121 61.6052 103.293 60.4772C102.477 59.3492 102.069 57.7172 102.069 55.5812C102.069 53.4692 102.477 51.8552 103.293 50.7392C104.121 49.6232 105.309 49.0652 106.857 49.0652C108.405 49.0652 109.587 49.6232 110.403 50.7392C111.231 51.8552 111.645 53.4692 111.645 55.5812C111.645 57.7172 111.231 59.3492 110.403 60.4772C109.587 61.6052 108.405 62.1692 106.857 62.1692ZM106.857 60.0092C107.565 60.0092 108.081 59.6612 108.405 58.9652C108.729 58.2692 108.891 57.1412 108.891 55.5812C108.891 54.0572 108.729 52.9532 108.405 52.2692C108.081 51.5732 107.565 51.2252 106.857 51.2252C106.149 51.2252 105.633 51.5732 105.309 52.2692C104.985 52.9532 104.823 54.0572 104.823 55.5812C104.823 57.1412 104.985 58.2692 105.309 58.9652C105.633 59.6612 106.149 60.0092 106.857 60.0092ZM118.15 62.1692C116.602 62.1692 115.414 61.6052 114.586 60.4772C113.77 59.3492 113.362 57.7172 113.362 55.5812C113.362 53.4692 113.77 51.8552 114.586 50.7392C115.414 49.6232 116.602 49.0652 118.15 49.0652C119.698 49.0652 120.88 49.6232 121.696 50.7392C122.524 51.8552 122.938 53.4692 122.938 55.5812C122.938 57.7172 122.524 59.3492 121.696 60.4772C120.88 61.6052 119.698 62.1692 118.15 62.1692ZM118.15 60.0092C118.858 60.0092 119.374 59.6612 119.698 58.9652C120.022 58.2692 120.184 57.1412 120.184 55.5812C120.184 54.0572 120.022 52.9532 119.698 52.2692C119.374 51.5732 118.858 51.2252 118.15 51.2252C117.442 51.2252 116.926 51.5732 116.602 52.2692C116.278 52.9532 116.116 54.0572 116.116 55.5812C116.116 57.1412 116.278 58.2692 116.602 58.9652C116.926 59.6612 117.442 60.0092 118.15 60.0092ZM133.871 57.7232H130.379V61.2332H128.507V57.7232H125.015V55.8692H128.507V52.3592H130.379V55.8692H133.871V57.7232Z" fill="#3D3D3F"/>
<g filter="url(#filter1_d_2_431)">
<circle cx="45.0002" cy="41.1451" r="23" fill="#7879F1"/>
</g>
<g clip-path="url(#clip0_2_431)">
<path d="M42.8987 41.3398L42.899 41.3397L42.9151 41.3398C44.9855 41.332 46.9975 42.0166 48.6326 43.2822C49.7852 42.109 51.3639 41.4487 53.0123 41.4544M42.8987 41.3398L33.8133 51.5042C33.916 51.607 34.0557 51.6642 34.2011 51.6627L34.2014 51.8127L34.2021 51.8127C34.2023 51.8127 34.2025 51.8127 34.2027 51.8127L48.476 51.7855C48.4779 51.7876 48.4798 51.7897 48.4817 51.7917L48.4818 51.7917C48.4984 51.8098 48.5131 51.8257 48.5276 51.8426L48.5275 51.8427L48.5322 51.8477C50.4621 53.8902 53.5298 54.3679 55.9896 53.0092L55.917 52.8779L55.9896 53.0092C58.4493 51.6504 59.6782 48.7996 58.9769 46.0784C58.2756 43.3574 55.8223 41.4554 53.0123 41.4544M42.8987 41.3398C40.3569 41.3451 37.9962 42.3335 36.2466 44.1331L42.8987 41.3398ZM53.0123 41.4544C53.0122 41.4544 53.0121 41.4544 53.012 41.4544L53.012 41.6044L53.0125 41.4544C53.0124 41.4544 53.0124 41.4544 53.0123 41.4544ZM47.5181 50.3932L34.9235 50.4142C35.0679 48.3631 35.8786 46.4973 37.2423 45.1022L37.2426 45.1019C38.7274 43.5744 40.7372 42.7325 42.899 42.7325L42.9154 42.7325L42.916 42.7325C44.6747 42.7256 46.3842 43.3045 47.7754 44.3761C46.6494 46.2027 46.5545 48.4819 47.5181 50.3932ZM53.012 52.3814C50.3791 52.3814 48.2449 50.2471 48.2449 47.6142C48.2449 44.9816 50.3791 42.8471 53.012 42.8471C55.6449 42.8471 57.7791 44.9816 57.7791 47.6142C57.7791 50.2471 55.6449 52.3814 53.012 52.3814Z" fill="white" stroke="white" stroke-width="0.3"/>
<path d="M42.9041 40.3394H42.9043C46.1764 40.3394 48.8292 37.6867 48.8292 34.4145C48.8292 31.1422 46.1764 28.4895 42.9043 28.4895C39.6321 28.4895 36.9794 31.1422 36.9794 34.4145L36.9794 34.4147C36.9825 37.6854 39.6332 40.3363 42.9041 40.3394ZM42.9044 29.8822C45.4075 29.8822 47.4364 31.9115 47.4364 34.4145C47.4364 36.9174 45.4075 38.9467 42.9043 38.9467C40.4012 38.9467 38.3721 36.9175 38.3721 34.4146C38.3751 31.9127 40.4024 29.8854 42.9044 29.8822Z" fill="white" stroke="white" stroke-width="0.3"/>
<path d="M54.7594 45.8307L54.7594 45.8307C55.0578 45.5926 55.4923 45.6393 55.7334 45.9356L55.7334 45.9357C55.9741 46.2319 55.9313 46.667 55.6371 46.9103L55.6362 46.911L55.6362 46.911L52.5818 49.397L52.5816 49.3972C52.4575 49.4977 52.3019 49.5525 52.1416 49.5507L52.1432 49.4007M54.7594 45.8307L50.3027 47.772L51.6139 49.307L51.6142 49.3074C51.7466 49.4613 51.9395 49.5503 52.1429 49.5507L52.1432 49.4007M54.7594 45.8307L54.7583 45.8316L52.2329 47.8864L51.361 46.8667C51.361 46.8667 51.361 46.8667 51.361 46.8666C51.111 46.5742 50.6716 46.54 50.3794 46.79L54.7594 45.8307ZM52.1432 49.4007C52.2683 49.4021 52.3899 49.3594 52.4872 49.2806L51.7279 49.2095C51.832 49.3305 51.9835 49.4004 52.1432 49.4007Z" fill="white" stroke="white" stroke-width="0.3"/>
</g>
<defs>
<filter id="filter0_d_2_431" x="17.0002" y="20.1451" width="181" height="100" filterUnits="userSpaceOnUse" color-interpolation-filters="sRGB">
<feFlood flood-opacity="0" result="BackgroundImageFix"/>
<feColorMatrix in="SourceAlpha" type="matrix" values="0 0 0 0 0 0 0 0 0 0 0 0 0 0 0 0 0 0 127 0" result="hardAlpha"/>
<feOffset dy="4"/>
<feGaussianBlur stdDeviation="11"/>
<feComposite in2="hardAlpha" operator="out"/>
<feColorMatrix type="matrix" values="0 0 0 0 0 0 0 0 0 0 0 0 0 0 0 0 0 0 0.05 0"/>
<feBlend mode="normal" in2="BackgroundImageFix" result="effect1_dropShadow_2_431"/>
<feBlend mode="normal" in="SourceGraphic" in2="effect1_dropShadow_2_431" result="shape"/>
</filter>
<filter id="filter1_d_2_431" x="0.000183105" y="0.145142" width="90" height="90" filterUnits="userSpaceOnUse" color-interpolation-filters="sRGB">
<feFlood flood-opacity="0" result="BackgroundImageFix"/>
<feColorMatrix in="SourceAlpha" type="matrix" values="0 0 0 0 0 0 0 0 0 0 0 0 0 0 0 0 0 0 127 0" result="hardAlpha"/>
<feOffset dy="4"/>
<feGaussianBlur stdDeviation="11"/>
<feComposite in2="hardAlpha" operator="out"/>
<feColorMatrix type="matrix" values="0 0 0 0 0 0 0 0 0 0 0 0 0 0 0 0 0 0 0.01 0"/>
<feBlend mode="normal" in2="BackgroundImageFix" result="effect1_dropShadow_2_431"/>
<feBlend mode="normal" in="SourceGraphic" in2="effect1_dropShadow_2_431" result="shape"/>
</filter>
<linearGradient id="paint0_linear_2_431" x1="107.5" y1="38.1451" x2="107.5" y2="94.1451" gradientUnits="userSpaceOnUse">
<stop stop-color="white" stop-opacity="0.93"/>
<stop offset="1" stop-color="white"/>
</linearGradient>
<clipPath id="clip0_2_431">
<rect width="27.0588" height="27.0588" fill="white" transform="translate(32.8237 27.6157)"/>
</clipPath>
</defs>
</svg>
