<svg width="219" height="193" viewBox="0 0 219 193" fill="none" xmlns="http://www.w3.org/2000/svg">
<g filter="url(#filter0_d_2_417)">
<rect x="22.0002" y="18.1451" width="175" height="148" rx="11" fill="white"/>
</g>
<path d="M174.553 78.1886L175.053 143.75L110.053 143.75L46.0534 141.537L44.1552 139.481C44.1044 139.456 44.07 139.419 44.0534 139.371L44.1552 139.481C44.6684 139.74 46.8467 138.903 49.0045 138.035C51.9687 136.842 54.6941 128.073 60.1398 126.246C65.5854 124.42 63.6889 127.741 70.4972 121.53C75.636 109.963 78.1175 109.33 85.0964 108.53C92.0753 107.73 97.4304 118.909 99.6679 126.411C101.905 133.913 105.142 141.378 114.637 141.027C124.131 140.676 122.984 120.132 126.107 108.098C129.229 96.0645 128.42 97.1078 142.053 85.2273C145.587 70.361 147.06 64.3285 148.053 64.1112L158.553 64.1112L165.553 74.94L174.553 78.1886Z" fill="url(#paint0_linear_2_417)"/>
<path d="M45.2727 141.602C49.6453 142.392 52.6693 138.511 54.662 134.903C55.565 133.271 56.2548 131.83 57.5854 130.575C58.1468 130.079 58.7989 129.715 59.4994 129.507C60.4267 129.289 61.3703 129.161 62.3188 129.126C64.2249 129.065 66.0832 128.468 67.7079 127.396C68.9635 126.422 70.0196 125.183 70.811 123.755C72.3768 121.108 73.24 118.066 74.7495 115.383C74.8327 115.236 74.9178 115.089 75.0048 114.944C75.0574 114.857 75.2751 114.524 75.1068 114.775C75.3222 114.453 75.5472 114.138 75.7885 113.837C76.0145 113.557 76.2537 113.289 76.505 113.035C76.6505 112.887 76.5347 112.997 76.5045 113.026C76.5949 112.945 76.6909 112.863 76.7855 112.782C76.9507 112.644 77.1204 112.513 77.2947 112.389C77.469 112.265 77.6456 112.148 77.8244 112.038C77.8867 112 78.2698 111.788 78.0414 111.905C78.4142 111.716 78.7986 111.554 79.1922 111.422C79.361 111.364 79.5311 111.311 79.7024 111.263C79.7894 111.239 80.2604 111.127 80.1639 111.146C80.2953 111.119 80.9317 111.035 81.2639 111.012C81.6562 110.983 82.0491 110.976 82.4426 110.989C82.5134 110.991 82.9606 111.018 82.7009 110.996C82.9457 111.017 83.1898 111.049 83.4327 111.087C84.2612 111.217 85.0776 111.424 85.873 111.704C86.065 111.767 85.9232 111.718 85.8836 111.703C85.9715 111.736 86.059 111.773 86.1464 111.809C86.3501 111.894 86.5518 111.983 86.7517 112.075C87.1227 112.25 87.486 112.441 87.8417 112.648C88.5066 113.013 89.1296 113.46 89.6981 113.98C92.4791 116.434 94.3965 119.887 95.8128 123.361C97.2152 126.803 98.1504 130.439 99.5901 133.863C100.972 137.151 102.762 140.309 105.642 142.311C108.917 144.587 113.034 144.271 116.33 142.223C119.909 140 121.991 135.981 123.158 131.861C124.432 127.37 124.699 122.619 125.029 117.966C125.334 113.671 125.677 109.347 126.816 105.196C127.696 101.671 129.408 98.4481 131.789 95.8388C134.264 93.273 138.071 91.8678 140.553 88.9971C143.33 85.7877 143.737 81.4001 144.387 77.2892C144.985 73.5169 145.922 69.6639 148.154 66.7542C149.129 65.448 150.391 64.4213 151.827 63.7658C152.206 63.5998 152.593 63.457 152.986 63.338C153.167 63.2837 153.349 63.2361 153.532 63.1914C153.29 63.2503 153.889 63.1299 153.983 63.1173C154.38 63.0642 154.78 63.0394 155.18 63.0432C155.274 63.0442 155.672 63.0658 155.581 63.057C155.407 63.0398 155.703 63.0768 155.707 63.0773C155.856 63.1037 156.005 63.124 156.154 63.1542C157.502 63.4347 158.712 64.2227 159.565 65.3761C160.532 66.7863 161.315 68.3314 161.892 69.9687C162.531 71.8192 163.337 73.598 164.3 75.2797C165.34 76.9924 166.744 78.4167 168.396 79.4364C169.218 79.9323 170.127 80.2415 171.066 80.345C172.005 80.4485 172.954 80.3439 173.854 80.0379C174.298 79.8767 174.664 79.5331 174.872 79.0828C175.079 78.6324 175.112 78.1123 174.962 77.6367C174.812 77.1611 174.492 76.769 174.072 76.5468C173.653 76.3245 173.168 76.2902 172.724 76.4515C172.547 76.5182 172.367 76.5724 172.183 76.6137C172.443 76.5635 171.927 76.6197 171.843 76.6226C171.758 76.6256 171.665 76.6253 171.576 76.6247C171.612 76.6225 171.819 76.6544 171.608 76.6273C171.374 76.5966 171.141 76.5482 170.913 76.4825C170.827 76.4582 170.741 76.4317 170.656 76.4022C170.695 76.4157 170.853 76.4839 170.664 76.4016C170.476 76.3194 170.274 76.2182 170.084 76.1111C169.767 75.9416 169.47 75.7324 169.2 75.4878C168.591 74.9751 168.05 74.3764 167.592 73.708C167.333 73.3377 167.093 72.9539 166.87 72.5566C166.752 72.3457 166.642 72.1314 166.531 71.9162C166.463 71.7902 166.403 71.6593 166.352 71.5244C164.871 68.0921 163.837 64.1725 161.061 61.6256C158.188 58.9885 154.132 58.6797 150.698 60.1815C147.184 61.8235 144.414 64.8834 142.988 68.6979C142.217 70.6397 141.632 72.6607 141.243 74.7294C140.859 76.6985 140.649 78.6991 140.285 80.6722C140.126 81.5917 139.907 82.4985 139.631 83.3859C139.354 84.2222 138.972 85.0146 138.497 85.7414C137.393 87.163 136.042 88.3415 134.519 89.2114C132.924 90.1773 131.406 91.2831 129.981 92.5177C128.546 93.8668 127.304 95.4347 126.295 97.171C124.395 100.559 123.114 104.303 122.52 108.203C121.731 112.774 121.618 117.437 121.197 122.054C120.807 126.331 120.25 130.818 118.326 134.595C117.532 136.219 116.385 137.616 114.983 138.665C113.631 139.718 111.983 140.24 110.316 140.143C110.104 140.128 110.245 140.133 110.285 140.138C110.184 140.126 110.084 140.11 109.983 140.093C109.78 140.059 109.578 140.017 109.377 139.966C109.213 139.923 109.052 139.87 108.889 139.823C108.876 139.819 108.614 139.727 108.788 139.792C108.962 139.857 108.531 139.679 108.541 139.683C108.24 139.546 107.946 139.39 107.662 139.215C107.568 139.157 107.477 139.094 107.383 139.035C107.371 139.028 107.146 138.871 107.297 138.979C107.383 139.041 107.037 138.773 106.954 138.704C106.673 138.466 106.404 138.213 106.148 137.946C106.008 137.8 105.871 137.651 105.739 137.499C105.681 137.432 105.625 137.366 105.569 137.299C105.379 137.07 105.714 137.491 105.534 137.251C105.043 136.6 104.592 135.915 104.184 135.2C103.983 134.847 103.791 134.487 103.609 134.122C103.524 133.953 103.44 133.781 103.359 133.608C103.317 133.522 103.279 133.435 103.236 133.349C103.341 133.575 103.197 133.257 103.162 133.178C102.826 132.416 102.516 131.64 102.229 130.856C101.592 129.133 101.056 127.368 100.458 125.632C99.133 121.802 97.564 117.95 95.2064 114.709C92.9674 111.48 89.8358 109.09 86.2562 107.879C84.5786 107.302 82.811 107.085 81.0546 107.242C79.2982 107.398 77.5875 107.925 76.0203 108.791C73.1897 110.445 71.5217 113.511 70.2057 116.542C69.5986 117.943 69.0378 119.366 68.3629 120.729C68.2033 121.051 68.0378 121.37 67.8629 121.683C67.7835 121.825 67.7011 121.965 67.6188 122.106C67.5929 122.15 67.4138 122.439 67.5352 122.248C67.646 122.072 67.465 122.352 67.4447 122.381C67.2517 122.661 67.0501 122.935 66.837 123.195C66.7387 123.314 66.6378 123.43 66.5346 123.543C66.4551 123.63 66.0649 124.015 66.3343 123.764C66.1092 123.969 65.8721 124.159 65.6245 124.332C65.478 124.434 65.3252 124.524 65.1756 124.62C65.004 124.73 65.2248 124.602 65.2495 124.589C65.1574 124.637 65.0629 124.682 64.9684 124.725C64.1295 125.077 63.2428 125.281 62.343 125.327C60.1921 125.536 58.0361 125.688 56.175 126.997C53.0194 129.214 51.9878 133.335 49.5741 136.089C49.0611 136.709 48.4455 137.223 47.7584 137.603C47.5702 137.705 47.6893 137.631 47.7287 137.614C47.6108 137.669 47.4897 137.719 47.3678 137.765C47.1867 137.836 47.0007 137.892 46.8114 137.933C47.0262 137.892 46.4954 137.942 46.4206 137.944C46.3235 137.949 46.2263 137.947 46.1293 137.94C46.2252 137.95 46.3496 137.963 46.0107 137.901C45.5537 137.807 45.0801 137.905 44.6888 138.176C44.2975 138.447 44.0187 138.869 43.9107 139.355C43.8172 139.846 43.9067 140.356 44.16 140.776C44.4134 141.197 44.8103 141.494 45.2658 141.604L45.2727 141.602Z" fill="url(#paint1_linear_2_417)"/>
<path d="M155.554 70.6626C159.696 70.6626 163.054 67.6203 163.054 63.8674C163.054 60.1146 159.696 57.0723 155.554 57.0723C151.412 57.0723 148.054 60.1146 148.054 63.8674C148.054 67.6203 151.412 70.6626 155.554 70.6626Z" fill="#FF414B"/>
<path d="M53.7242 62.162C52.7402 62.162 51.8162 62.03 50.9522 61.766C50.1002 61.502 49.3742 61.124 48.7742 60.632L49.5662 58.94C50.1902 59.408 50.8382 59.756 51.5102 59.984C52.1942 60.2 52.9382 60.308 53.7422 60.308C54.6302 60.308 55.3142 60.152 55.7942 59.84C56.2862 59.528 56.5322 59.09 56.5322 58.526C56.5322 58.046 56.3042 57.68 55.8482 57.428C55.4042 57.164 54.6662 56.918 53.6342 56.69C52.0262 56.342 50.8562 55.892 50.1242 55.34C49.3922 54.788 49.0262 53.984 49.0262 52.928C49.0262 52.172 49.2302 51.5 49.6382 50.912C50.0462 50.324 50.6222 49.862 51.3662 49.526C52.1222 49.19 52.9922 49.022 53.9762 49.022C54.8762 49.022 55.7282 49.16 56.5322 49.436C57.3482 49.7 58.0142 50.072 58.5302 50.552L57.7562 52.244C56.6162 51.332 55.3562 50.876 53.9762 50.876C53.1482 50.876 52.4942 51.05 52.0142 51.398C51.5342 51.734 51.2942 52.196 51.2942 52.784C51.2942 53.288 51.5042 53.672 51.9242 53.936C52.3562 54.2 53.0882 54.446 54.1202 54.674C55.1882 54.926 56.0582 55.202 56.7302 55.502C57.4022 55.79 57.9182 56.168 58.2782 56.636C58.6382 57.092 58.8182 57.668 58.8182 58.364C58.8182 59.132 58.6142 59.804 58.2062 60.38C57.7982 60.944 57.2102 61.382 56.4422 61.694C55.6742 62.006 54.7682 62.162 53.7242 62.162ZM69.5022 52.91V62H67.2882V60.542C67.0122 61.046 66.6162 61.442 66.1002 61.73C65.5842 62.006 64.9962 62.144 64.3362 62.144C63.5442 62.144 62.8422 61.952 62.2302 61.568C61.6182 61.184 61.1442 60.638 60.8082 59.93C60.4722 59.222 60.3042 58.4 60.3042 57.464C60.3042 56.528 60.4722 55.7 60.8082 54.98C61.1562 54.248 61.6362 53.684 62.2482 53.288C62.8602 52.88 63.5562 52.676 64.3362 52.676C64.9962 52.676 65.5842 52.82 66.1002 53.108C66.6162 53.384 67.0122 53.774 67.2882 54.278V52.91H69.5022ZM64.9482 60.38C65.6922 60.38 66.2682 60.122 66.6762 59.606C67.0842 59.09 67.2882 58.364 67.2882 57.428C67.2882 56.468 67.0842 55.73 66.6762 55.214C66.2682 54.698 65.6862 54.44 64.9302 54.44C64.1862 54.44 63.6042 54.71 63.1842 55.25C62.7762 55.778 62.5722 56.516 62.5722 57.464C62.5722 58.4 62.7762 59.12 63.1842 59.624C63.6042 60.128 64.1922 60.38 64.9482 60.38ZM71.9528 48.752H74.1848V62H71.9528V48.752ZM84.6021 57.572H78.3381C78.3861 58.544 78.6261 59.264 79.0581 59.732C79.5021 60.188 80.1561 60.416 81.0201 60.416C82.0161 60.416 82.9401 60.092 83.7921 59.444L84.4401 60.992C84.0081 61.34 83.4741 61.622 82.8381 61.838C82.2141 62.042 81.5781 62.144 80.9301 62.144C79.4421 62.144 78.2721 61.724 77.4201 60.884C76.5681 60.044 76.1421 58.892 76.1421 57.428C76.1421 56.504 76.3281 55.682 76.7001 54.962C77.0721 54.242 77.5941 53.684 78.2661 53.288C78.9381 52.88 79.7001 52.676 80.5521 52.676C81.8001 52.676 82.7841 53.084 83.5041 53.9C84.2361 54.704 84.6021 55.814 84.6021 57.23V57.572ZM80.6061 54.296C80.0061 54.296 79.5141 54.476 79.1301 54.836C78.7581 55.184 78.5181 55.694 78.4101 56.366H82.6401C82.5681 55.682 82.3581 55.166 82.0101 54.818C81.6741 54.47 81.2061 54.296 80.6061 54.296ZM89.8374 62.144C88.1934 62.144 86.8854 61.76 85.9134 60.992L86.5434 59.408C87.5154 60.128 88.6254 60.488 89.8734 60.488C90.4134 60.488 90.8274 60.398 91.1154 60.218C91.4154 60.038 91.5654 59.786 91.5654 59.462C91.5654 59.186 91.4634 58.97 91.2594 58.814C91.0554 58.646 90.7074 58.502 90.2154 58.382L88.7034 58.04C87.0474 57.68 86.2194 56.834 86.2194 55.502C86.2194 54.95 86.3754 54.464 86.6874 54.044C86.9994 53.612 87.4374 53.276 88.0014 53.036C88.5654 52.796 89.2194 52.676 89.9634 52.676C90.6114 52.676 91.2354 52.778 91.8354 52.982C92.4354 53.174 92.9634 53.456 93.4194 53.828L92.7534 55.358C91.8414 54.686 90.9054 54.35 89.9454 54.35C89.4294 54.35 89.0274 54.446 88.7394 54.638C88.4514 54.83 88.3074 55.094 88.3074 55.43C88.3074 55.694 88.3914 55.904 88.5594 56.06C88.7394 56.216 89.0394 56.348 89.4594 56.456L91.0074 56.798C91.9074 57.002 92.5614 57.32 92.9694 57.752C93.3894 58.172 93.5994 58.724 93.5994 59.408C93.5994 60.248 93.2634 60.914 92.5914 61.406C91.9194 61.898 91.0014 62.144 89.8374 62.144Z" fill="#3D3D3F"/>
<g clip-path="url(#clip0_2_417)">
<path d="M98.6944 54.8031C98.6944 54.8031 99.3265 55.7318 100.651 56.5178C100.651 56.5178 99.6919 48.4084 105.944 47C104.342 52.8788 107.981 54.5367 109.308 51.4308C111.523 54.3887 109.841 56.9692 109.841 56.9692C110.75 57.1001 111.513 56.1077 111.513 56.1077C111.52 56.2299 111.523 56.353 111.523 56.477C111.523 60.0795 108.603 63 105 63C101.398 63 98.4772 60.0795 98.4772 56.4769C98.4772 55.8982 98.553 55.3373 98.6944 54.8031Z" fill="#FF6536"/>
<path d="M111.513 56.1077C111.513 56.1077 110.75 57.1001 109.841 56.9692C109.841 56.9692 111.523 54.3887 109.308 51.4308C107.981 54.5367 104.342 52.8788 105.944 47C105.609 47.0754 105.295 47.1702 105 47.2818V63C108.603 63 111.523 60.0795 111.523 56.4769C111.523 56.353 111.519 56.2299 111.513 56.1077Z" fill="#FF421D"/>
<path d="M102.139 60.1392C102.139 61.7192 103.42 63 105 63C106.58 63 107.861 61.7192 107.861 60.1392C107.861 59.2936 107.494 58.5336 106.911 58.0099C105.805 59.5126 104.228 57.2332 105.457 55.5686C105.457 55.5686 102.139 55.9843 102.139 60.1392Z" fill="#FBBF00"/>
<path d="M107.861 60.1392C107.861 59.2936 107.494 58.5336 106.911 58.0099C105.805 59.5126 104.228 57.2332 105.457 55.5686C105.457 55.5686 105.277 55.5913 105 55.6785V63C106.58 63 107.861 61.7192 107.861 60.1392Z" fill="#FFA900"/>
</g>
<defs>
<filter id="filter0_d_2_417" x="0.000183105" y="0.145142" width="219" height="192" filterUnits="userSpaceOnUse" color-interpolation-filters="sRGB">
<feFlood flood-opacity="0" result="BackgroundImageFix"/>
<feColorMatrix in="SourceAlpha" type="matrix" values="0 0 0 0 0 0 0 0 0 0 0 0 0 0 0 0 0 0 127 0" result="hardAlpha"/>
<feOffset dy="4"/>
<feGaussianBlur stdDeviation="11"/>
<feComposite in2="hardAlpha" operator="out"/>
<feColorMatrix type="matrix" values="0 0 0 0 0 0 0 0 0 0 0 0 0 0 0 0 0 0 0.05 0"/>
<feBlend mode="normal" in2="BackgroundImageFix" result="effect1_dropShadow_2_417"/>
<feBlend mode="normal" in="SourceGraphic" in2="effect1_dropShadow_2_417" result="shape"/>
</filter>
<linearGradient id="paint0_linear_2_417" x1="92.7888" y1="35.1094" x2="103.359" y2="146.772" gradientUnits="userSpaceOnUse">
<stop stop-color="#FF7A5C" stop-opacity="0.5"/>
<stop offset="1" stop-color="#FF5C6F" stop-opacity="0.18"/>
</linearGradient>
<linearGradient id="paint1_linear_2_417" x1="53.2915" y1="167.942" x2="96.8164" y2="18.3217" gradientUnits="userSpaceOnUse">
<stop stop-color="#FF414B"/>
<stop offset="1" stop-color="#FF8760"/>
</linearGradient>
<clipPath id="clip0_2_417">
<rect width="16" height="16" fill="white" transform="translate(97.0002 47)"/>
</clipPath>
</defs>
</svg>
