<svg width="72" height="72" viewBox="0 0 72 72" fill="none" xmlns="http://www.w3.org/2000/svg">
<circle cx="35.9723" cy="35.5116" r="35.5193" fill="#BC5C56" fill-opacity="0.06"/>
<path d="M55.9413 35.0181C55.9404 34.6124 55.7297 34.236 55.3843 34.0231L51.3192 31.5171L55.3886 28.9842C55.7318 28.7707 55.9406 28.3953 55.9413 27.9911C55.9419 27.5869 55.7342 27.2109 55.3916 26.9963L36.5635 15.1995C36.183 14.961 35.6996 14.961 35.3191 15.1995L16.491 26.9963C16.1485 27.2109 15.9408 27.5869 15.9413 27.9911C15.942 28.3953 16.1508 28.7707 16.494 28.9842L20.5355 31.4997L16.4922 34.027C16.1492 34.2413 15.941 34.6173 15.9414 35.0218C15.9418 35.4263 16.1507 35.8019 16.4941 36.0156L20.5356 38.5311L16.4922 41.0582C16.1498 41.2722 15.9417 41.6475 15.9414 42.0513C15.9412 42.4551 16.1489 42.8306 16.4911 43.045L35.3192 54.8418C35.5095 54.961 35.7254 55.0206 35.9413 55.0206C36.1573 55.0206 36.3733 54.961 36.5635 54.8418L55.3916 43.045C55.7349 42.8299 55.9428 42.4527 55.9413 42.0476C55.9398 41.6426 55.7292 41.2669 55.3843 41.0544L51.3192 38.5484L55.3886 36.0155C55.7331 35.8012 55.9421 35.4238 55.9413 35.0181ZM19.3257 27.9862L35.9413 17.5755L52.557 27.9862C52.3973 28.0856 36.4175 38.0315 35.9413 38.3279L19.3257 27.9862ZM52.5493 42.0601L35.9413 52.4659L19.3224 42.0532L22.7512 39.9101L35.3221 47.7343C35.5117 47.8523 35.7265 47.9113 35.9413 47.9113C36.1562 47.9113 36.371 47.8523 36.5606 47.7343L49.0968 39.9317L52.5493 42.0601ZM35.9413 45.3591L19.3277 35.0187L22.7512 32.8789L35.3221 40.7031C35.5117 40.8211 35.7265 40.8801 35.9413 40.8801C36.1562 40.8801 36.371 40.8211 36.5606 40.7031L49.0968 32.9005L52.544 35.0255C52.4488 35.0848 36.3812 45.0853 35.9413 45.3591Z" fill="#FD695A" stroke="#FD695A" stroke-width="0.5"/>
</svg>
