<svg width="293" height="171" viewBox="0 0 293 171" fill="none" xmlns="http://www.w3.org/2000/svg">
<path d="M10.3875 158.761C10.5422 158.532 10.4804 158.316 10.2542 158.272C10.0232 158.23 9.7164 158.382 9.56173 158.611C9.40705 158.84 9.46891 159.055 9.69503 159.1C9.92512 159.138 10.2377 158.988 10.3875 158.761Z" stroke="#FD695A" stroke-width="2" stroke-miterlimit="10"/>
<path d="M12.6283 159.093C12.783 158.864 12.7211 158.649 12.4948 158.604C12.2637 158.562 11.9568 158.714 11.8021 158.943C11.6474 159.172 11.7093 159.388 11.9355 159.432C12.1618 159.477 12.4736 159.322 12.6283 159.093Z" stroke="#FD695A" stroke-width="2" stroke-miterlimit="10"/>
<path d="M14.8652 159.428C15.0197 159.199 14.9578 158.983 14.7317 158.938C14.5007 158.896 14.194 159.048 14.0394 159.277C13.8849 159.506 13.9468 159.722 14.1729 159.767C14.3991 159.811 14.7106 159.657 14.8652 159.428Z" stroke="#FD695A" stroke-width="2" stroke-miterlimit="10"/>
<path d="M16.9922 159.762C16.8992 159.983 16.688 160.131 16.5206 160.091C16.3531 160.051 16.2928 159.84 16.3859 159.619C16.4789 159.397 16.6901 159.25 16.8575 159.29C17.025 159.33 17.0853 159.541 16.9922 159.762Z" stroke="#FD695A" stroke-width="2" stroke-miterlimit="10"/>
<path d="M19.3416 160.1C19.496 159.871 19.4341 159.655 19.2082 159.611C18.9775 159.568 18.671 159.72 18.5166 159.949C18.3622 160.178 18.4241 160.394 18.65 160.439C18.875 160.48 19.1862 160.326 19.3416 160.1Z" stroke="#FD695A" stroke-width="2" stroke-miterlimit="10"/>
<path d="M21.5795 160.434C21.734 160.205 21.6721 159.989 21.4461 159.945C21.2152 159.902 20.9087 160.054 20.7542 160.283C20.5997 160.512 20.6616 160.728 20.8876 160.773C21.1127 160.814 21.425 160.663 21.5795 160.434Z" stroke="#FD695A" stroke-width="2" stroke-miterlimit="10"/>
<path d="M23.8168 160.769C23.9712 160.54 23.9093 160.324 23.6833 160.28C23.4524 160.237 23.1459 160.389 22.9915 160.618C22.8371 160.847 22.899 161.063 23.125 161.108C23.3501 161.149 23.6624 160.998 23.8168 160.769Z" stroke="#FD695A" stroke-width="2" stroke-miterlimit="10"/>
<path d="M26.2373 158.334C26.0125 158.293 25.7072 158.448 25.5481 158.68C25.3898 158.915 25.4468 159.133 25.6717 159.174C25.8965 159.215 26.2018 159.06 26.3609 158.829C26.5152 158.6 26.4622 158.376 26.2373 158.334Z" stroke="#FD695A" stroke-width="2" stroke-miterlimit="10"/>
<path d="M26.5653 156.054C26.3405 156.013 26.0352 156.169 25.876 156.4C25.7178 156.635 25.7748 156.853 25.9997 156.894C26.2245 156.936 26.5299 156.78 26.689 156.549C26.8433 156.32 26.7902 156.096 26.5653 156.054Z" stroke="#FD695A" stroke-width="2" stroke-miterlimit="10"/>
<path d="M26.8938 153.774C26.6689 153.733 26.3635 153.888 26.2044 154.12C26.0461 154.355 26.1031 154.573 26.328 154.614C26.5529 154.656 26.8582 154.5 27.0174 154.269C27.1717 154.04 27.1186 153.816 26.8938 153.774Z" stroke="#FD695A" stroke-width="2" stroke-miterlimit="10"/>
<path d="M27.2272 151.989C27.1334 152.215 26.9255 152.366 26.7629 152.328C26.6003 152.289 26.5445 152.074 26.6383 151.848C26.7322 151.623 26.94 151.471 27.1026 151.51C27.2652 151.549 27.321 151.763 27.2272 151.989Z" stroke="#FD695A" stroke-width="2" stroke-miterlimit="10"/>
<path d="M27.5497 149.215C27.3249 149.174 27.0197 149.329 26.8606 149.56C26.7024 149.795 26.7593 150.014 26.984 150.055C27.2087 150.096 27.5139 149.941 27.6731 149.709C27.8313 149.474 27.7744 149.256 27.5497 149.215Z" stroke="#FD695A" stroke-width="2" stroke-miterlimit="10"/>
<path d="M27.8769 146.934C27.6521 146.893 27.3469 147.048 27.1878 147.28C27.0296 147.515 27.0866 147.733 27.3113 147.774C27.5361 147.815 27.8413 147.66 28.0004 147.428C28.1586 147.194 28.1016 146.975 27.8769 146.934Z" stroke="#FD695A" stroke-width="2" stroke-miterlimit="10"/>
<path d="M28.2052 144.655C27.9804 144.613 27.6752 144.769 27.5161 145C27.3579 145.235 27.4149 145.453 27.6396 145.495C27.8644 145.536 28.1696 145.38 28.3287 145.149C28.4869 144.914 28.4299 144.696 28.2052 144.655Z" stroke="#FD695A" stroke-width="2" stroke-miterlimit="10"/>
<path d="M25.6107 142.398C25.4562 142.627 25.5181 142.843 25.7441 142.888C25.975 142.93 26.2816 142.778 26.4361 142.549C26.5905 142.32 26.5286 142.104 26.3026 142.06C26.0727 142.021 25.7652 142.169 25.6107 142.398Z" stroke="#FD695A" stroke-width="2" stroke-miterlimit="10"/>
<path d="M23.373 142.064C23.2183 142.293 23.2802 142.508 23.5065 142.553C23.7376 142.595 24.0446 142.443 24.1993 142.214C24.3541 141.985 24.2922 141.769 24.0659 141.725C23.8348 141.683 23.5278 141.835 23.373 142.064Z" stroke="#FD695A" stroke-width="2" stroke-miterlimit="10"/>
<path d="M21.1359 141.729C20.9813 141.958 21.0432 142.174 21.2693 142.219C21.5002 142.261 21.8069 142.109 21.9615 141.88C22.1161 141.651 22.0542 141.435 21.8281 141.39C21.5972 141.348 21.2904 141.5 21.1359 141.729Z" stroke="#FD695A" stroke-width="2" stroke-miterlimit="10"/>
<path d="M18.8969 141.392C18.7425 141.621 18.8044 141.837 19.0303 141.882C19.261 141.924 19.5674 141.772 19.7218 141.543C19.8761 141.314 19.8143 141.098 19.5884 141.053C19.3586 141.015 19.0522 141.166 18.8969 141.392Z" stroke="#FD695A" stroke-width="2" stroke-miterlimit="10"/>
<path d="M16.6591 141.057C16.5047 141.286 16.5666 141.502 16.7925 141.547C17.0233 141.589 17.3297 141.437 17.484 141.208C17.6384 140.979 17.5764 140.763 17.3506 140.719C17.1207 140.68 16.8095 140.834 16.6591 141.057Z" stroke="#FD695A" stroke-width="2" stroke-miterlimit="10"/>
<path d="M14.4213 140.723C14.2668 140.952 14.3286 141.168 14.5546 141.213C14.7855 141.255 15.0921 141.103 15.2466 140.874C15.4011 140.645 15.3392 140.429 15.1132 140.384C14.8833 140.346 14.5709 140.496 14.4213 140.723Z" stroke="#FD695A" stroke-width="2" stroke-miterlimit="10"/>
<path d="M12.1807 140.391C12.0261 140.62 12.088 140.836 12.3141 140.88C12.5451 140.922 12.8519 140.771 13.0065 140.542C13.1612 140.312 13.0993 140.097 12.8732 140.052C12.6479 140.011 12.3354 140.162 12.1807 140.391Z" stroke="#FD695A" stroke-width="2" stroke-miterlimit="10"/>
<path d="M9.76046 142.826C9.98543 142.868 10.2909 142.712 10.4502 142.481C10.6085 142.246 10.5515 142.028 10.3266 141.986C10.1016 141.945 9.7961 142.101 9.63685 142.332C9.48246 142.561 9.54037 142.783 9.76046 142.826Z" stroke="#FD695A" stroke-width="2" stroke-miterlimit="10"/>
<path d="M9.4325 145.106C9.65734 145.147 9.96267 144.992 10.1218 144.76C10.2801 144.525 10.2231 144.307 9.99828 144.266C9.77344 144.225 9.46811 144.38 9.30895 144.612C9.15464 144.841 9.20766 145.065 9.4325 145.106Z" stroke="#FD695A" stroke-width="2" stroke-miterlimit="10"/>
<path d="M9.10425 147.385C9.32922 147.426 9.63482 147.271 9.79418 147.04C9.95264 146.805 9.89572 146.587 9.67074 146.546C9.44576 146.505 9.14016 146.66 8.9808 146.891C8.8263 147.121 8.87927 147.345 9.10425 147.385Z" stroke="#FD695A" stroke-width="2" stroke-miterlimit="10"/>
<path d="M8.77655 149.666C9.00141 149.707 9.30677 149.552 9.46593 149.32C9.6242 149.085 9.56721 148.867 9.34234 148.826C9.11748 148.785 8.81213 148.94 8.65296 149.171C8.49956 149.404 8.55168 149.625 8.77655 149.666Z" stroke="#FD695A" stroke-width="2" stroke-miterlimit="10"/>
<path d="M8.4488 151.946C8.67366 151.987 8.97901 151.832 9.13817 151.601C9.29644 151.366 9.23944 151.147 9.01458 151.106C8.78971 151.065 8.48436 151.22 8.3252 151.452C8.1718 151.684 8.22393 151.905 8.4488 151.946Z" stroke="#FD695A" stroke-width="2" stroke-miterlimit="10"/>
<path d="M8.12033 154.226C8.34517 154.267 8.65049 154.112 8.80964 153.88C8.96788 153.645 8.91091 153.427 8.68606 153.386C8.46122 153.345 8.1559 153.5 7.99675 153.731C7.84336 153.964 7.89549 154.185 8.12033 154.226Z" stroke="#FD695A" stroke-width="2" stroke-miterlimit="10"/>
<path d="M7.79216 156.506C8.01703 156.547 8.32239 156.392 8.48156 156.16C8.63983 155.925 8.58284 155.707 8.35797 155.666C8.13311 155.625 7.82776 155.78 7.66859 156.012C7.51518 156.244 7.5673 156.465 7.79216 156.506Z" stroke="#FD695A" stroke-width="2" stroke-miterlimit="10"/>
<path d="M26.102 160.787C26.1555 160.976 25.9864 161.236 25.7243 161.368C25.4622 161.5 25.2064 161.454 25.1529 161.265C25.0995 161.076 25.2686 160.815 25.5307 160.683C25.7928 160.551 26.0486 160.598 26.102 160.787Z" stroke="#FD695A" stroke-width="2" stroke-miterlimit="10"/>
<path d="M26.102 160.787C26.1555 160.976 25.9864 161.236 25.7243 161.368C25.4622 161.5 25.2064 161.454 25.1529 161.265C25.0995 161.076 25.2686 160.815 25.5307 160.683C25.7928 160.551 26.0486 160.598 26.102 160.787Z" stroke="#FD695A" stroke-width="2" stroke-miterlimit="10"/>
<path d="M28.5181 142.392C28.2931 142.352 27.991 142.504 27.8422 142.733C27.6933 142.962 27.7549 143.18 27.98 143.221C28.205 143.262 28.5071 143.109 28.6559 142.88C28.8048 142.651 28.7432 142.433 28.5181 142.392Z" stroke="#FD695A" stroke-width="2" stroke-miterlimit="10"/>
<path d="M27.8422 142.733C27.6933 142.962 27.7549 143.18 27.98 143.221C28.205 143.262 28.5071 143.109 28.6559 142.88C28.8048 142.651 28.7432 142.433 28.5181 142.392C28.2931 142.352 27.991 142.504 27.8422 142.733Z" stroke="#FD695A" stroke-width="2" stroke-miterlimit="10"/>
<path d="M10.8452 139.896C10.8987 140.085 10.7295 140.345 10.4674 140.477C10.2054 140.609 9.94956 140.563 9.89611 140.374C9.84266 140.185 10.0118 139.924 10.2739 139.792C10.536 139.66 10.7918 139.707 10.8452 139.896Z" stroke="#FD695A" stroke-width="2" stroke-miterlimit="10"/>
<path d="M10.8452 139.896C10.8987 140.085 10.7295 140.345 10.4674 140.477C10.2054 140.609 9.94956 140.563 9.89611 140.374C9.84266 140.185 10.0118 139.924 10.2739 139.792C10.536 139.66 10.7918 139.707 10.8452 139.896Z" stroke="#FD695A" stroke-width="2" stroke-miterlimit="10"/>
<path d="M8.22439 158.112C8.27782 158.301 8.10866 158.562 7.84656 158.694C7.58445 158.826 7.32867 158.78 7.27523 158.59C7.2218 158.401 7.39095 158.141 7.65306 158.009C7.91516 157.877 8.17095 157.923 8.22439 158.112Z" stroke="#FD695A" stroke-width="2" stroke-miterlimit="10"/>
<path d="M8.22439 158.112C8.27782 158.301 8.10866 158.562 7.84656 158.694C7.58445 158.826 7.32867 158.78 7.27523 158.59C7.2218 158.401 7.39095 158.141 7.65306 158.009C7.91516 157.877 8.17095 157.923 8.22439 158.112Z" stroke="#FD695A" stroke-width="2" stroke-miterlimit="10"/>
<path d="M128 19.343C129.387 17.9209 130.946 19.5148 132.333 18.0926C133.72 16.6705 132.165 15.0712 133.552 13.6491C134.939 12.2269 136.498 13.8208 137.885 12.3987C139.272 10.9765 137.718 9.37725 139.104 7.9551C140.491 6.53295 142.051 8.12685 143.437 6.7047C144.829 5.27719 143.27 3.68328 144.662 2.25577C146.054 0.82825 147.608 2.42752 149 1" stroke="#BCA1F0" stroke-width="2" stroke-miterlimit="10"/>
<path d="M48.0423 54.3302H47.0388C46.4865 54.3302 46.0388 54.7779 46.0388 55.3302V67.5767C46.0388 68.1289 46.4865 68.5767 47.0388 68.5767H48.0423C48.5945 68.5767 49.0423 68.1289 49.0423 67.5767V55.3302C49.0423 54.7779 48.5945 54.3302 48.0423 54.3302Z" fill="#E1506D"/>
<path d="M54.5309 61.9866V60.9259C54.5309 60.3736 54.0832 59.9259 53.5309 59.9259H41.5509C40.9986 59.9259 40.5509 60.3736 40.5509 60.9259V61.9866C40.5509 62.5389 40.9986 62.9866 41.5509 62.9866H53.5309C54.0832 62.9866 54.5309 62.5389 54.5309 61.9866Z" fill="#E1506D"/>
<path d="M257.612 71.3836L248.712 62.3134C248.497 62.095 248.497 61.7444 248.712 61.5261L257.612 52.4559C257.826 52.2375 258.17 52.2375 258.385 52.4559L267.285 61.5261C267.499 61.7444 267.499 62.095 267.285 62.3134L258.385 71.3836C258.17 71.6019 257.826 71.6019 257.612 71.3836Z" stroke="#0062FF" stroke-opacity="0.54" stroke-miterlimit="10"/>
<path d="M257.833 65.9451L254.048 62.0882C253.957 61.9955 253.957 61.8434 254.048 61.7508L257.833 57.8938C257.924 57.8012 258.073 57.8012 258.164 57.8938L261.949 61.7508C262.039 61.8434 262.039 61.9955 261.949 62.0882L258.164 65.9451C258.073 66.0377 257.924 66.0377 257.833 65.9451Z" fill="#7BD2FE"/>
<path d="M290.624 155.898C291.409 150.931 288.094 146.256 283.219 145.456C278.345 144.656 273.757 148.034 272.972 153.001C272.187 157.968 275.502 162.643 280.377 163.443C285.251 164.243 289.839 160.865 290.624 155.898Z" stroke="#41BA77" stroke-width="2.5" stroke-miterlimit="10"/>
</svg>
